<svg width="614.8" height="75.201" viewBox="0 0 614.8 75.201" xmlns="http://www.w3.org/2000/svg"><g id="svgGroup" stroke-linecap="round" fill-rule="evenodd" font-size="9pt" stroke="#000" stroke-width="0.25mm" fill="#000" style="stroke:#000;stroke-width:0.25mm;fill:#000"><path d="M 360.3 74 L 351.3 74 L 351.3 22 L 360 22 L 360 30.7 Q 362.8 26.5 367.1 23.65 A 17.205 17.205 0 0 1 376.302 20.809 A 20.858 20.858 0 0 1 376.9 20.8 A 20.994 20.994 0 0 1 381.317 21.24 Q 384.303 21.882 386.585 23.463 A 13.128 13.128 0 0 1 387.05 23.8 A 15.751 15.751 0 0 1 392.498 31.489 A 19.154 19.154 0 0 1 392.6 31.8 Q 395.7 27.2 399.95 24 A 15.669 15.669 0 0 1 406.741 21.116 A 21.446 21.446 0 0 1 410.5 20.8 A 21.437 21.437 0 0 1 415.388 21.322 Q 418.974 22.162 421.463 24.351 A 12.994 12.994 0 0 1 423.15 26.15 A 18.992 18.992 0 0 1 426.561 33.422 Q 427.3 36.472 427.3 40.1 L 427.3 74 L 418.3 74 L 418.3 40.8 A 19.042 19.042 0 0 0 417.963 37.111 Q 417.527 34.905 416.528 33.161 A 10.982 10.982 0 0 0 415.8 32.05 A 7.974 7.974 0 0 0 409.987 28.754 A 10.678 10.678 0 0 0 408.9 28.7 A 11.926 11.926 0 0 0 402.141 30.827 A 15.996 15.996 0 0 0 400.55 32.05 Q 396.7 35.4 393.8 39.9 L 393.8 74 L 384.8 74 L 384.8 40.8 A 19.042 19.042 0 0 0 384.463 37.111 Q 384.027 34.905 383.028 33.161 A 10.982 10.982 0 0 0 382.3 32.05 A 7.974 7.974 0 0 0 376.487 28.754 A 10.678 10.678 0 0 0 375.4 28.7 A 12.02 12.02 0 0 0 369.081 30.528 A 16.244 16.244 0 0 0 367.1 31.95 Q 363.2 35.2 360.3 39.6 L 360.3 74 Z M 130.8 74 L 121.8 74 L 121.8 0 L 130.8 0 L 130.8 30.3 Q 133.6 26.2 137.9 23.5 A 17.572 17.572 0 0 1 145.025 20.991 A 22.595 22.595 0 0 1 148 20.8 A 23.225 23.225 0 0 1 153.065 21.318 Q 158.159 22.456 161.15 26.1 Q 165.275 31.126 165.488 39.209 A 33.764 33.764 0 0 1 165.5 40.1 L 165.5 74 L 156.5 74 L 156.5 41.1 Q 156.5 35.5 153.9 32.1 A 8.42 8.42 0 0 0 147.742 28.753 A 11.979 11.979 0 0 0 146.6 28.7 A 13.23 13.23 0 0 0 139.887 30.566 A 17.586 17.586 0 0 0 137.85 31.95 Q 133.7 35.2 130.8 39.6 L 130.8 74 Z M 476.8 74 L 467.8 74 L 467.8 22 L 476.5 22 L 476.5 30.7 Q 479.3 26.5 483.65 23.65 A 17.316 17.316 0 0 1 490.756 21.025 A 22.629 22.629 0 0 1 494 20.8 A 23.225 23.225 0 0 1 499.065 21.318 Q 504.159 22.456 507.15 26.1 Q 511.275 31.126 511.488 39.209 A 33.764 33.764 0 0 1 511.5 40.1 L 511.5 74 L 502.5 74 L 502.5 41.1 A 19.265 19.265 0 0 0 502.158 37.359 Q 501.719 35.145 500.719 33.397 A 10.966 10.966 0 0 0 499.85 32.1 A 8.579 8.579 0 0 0 493.573 28.747 A 12.061 12.061 0 0 0 492.5 28.7 A 13.122 13.122 0 0 0 485.651 30.664 A 17.353 17.353 0 0 0 483.8 31.95 Q 479.7 35.2 476.8 39.6 L 476.8 74 Z M 9.5 74 L 0 74 L 0 4 L 41.5 4 L 41.5 12.2 L 9.5 12.2 L 9.5 33.6 L 36.2 33.6 L 36.2 41.4 L 9.5 41.4 L 9.5 74 Z M 70.5 69.8 L 74.3 62.3 A 18.557 18.557 0 0 0 77.444 64.426 Q 78.998 65.27 80.85 65.95 A 24.073 24.073 0 0 0 88.461 67.387 A 27.464 27.464 0 0 0 89.3 67.4 Q 94.692 67.4 97.535 65.685 A 7.738 7.738 0 0 0 97.75 65.55 Q 100.6 63.7 100.6 60.8 A 7.123 7.123 0 0 0 100.286 58.653 A 6.212 6.212 0 0 0 99.55 57.1 A 6.384 6.384 0 0 0 98.621 56.006 Q 97.607 55.034 95.934 54.081 A 22.3 22.3 0 0 0 95.7 53.95 A 28.462 28.462 0 0 0 93.706 52.957 Q 91.59 51.995 88.601 50.946 A 103.602 103.602 0 0 0 87.6 50.6 A 46.616 46.616 0 0 1 83.202 48.857 Q 81.088 47.883 79.412 46.795 A 19.335 19.335 0 0 1 76.65 44.65 A 11.324 11.324 0 0 1 73.356 38.654 A 16.794 16.794 0 0 1 73 35.1 Q 73 29.1 78.25 24.95 Q 82.654 21.469 89.908 20.908 A 37.527 37.527 0 0 1 92.8 20.8 A 40.794 40.794 0 0 1 97.246 21.031 Q 99.554 21.284 101.57 21.815 A 25.234 25.234 0 0 1 101.7 21.85 Q 105.6 22.9 108.7 24.5 L 106.2 31.9 Q 103.5 30.3 100.05 29.3 A 25.024 25.024 0 0 0 95.567 28.453 A 31.837 31.837 0 0 0 92.4 28.3 A 20.632 20.632 0 0 0 89.463 28.495 Q 86.377 28.94 84.5 30.4 A 9.322 9.322 0 0 0 83.142 31.673 Q 82.44 32.492 82.105 33.365 A 4.529 4.529 0 0 0 81.8 35 A 4.921 4.921 0 0 0 83.295 38.552 A 7.082 7.082 0 0 0 83.9 39.1 A 9.88 9.88 0 0 0 85.2 39.969 Q 87.473 41.271 91.898 42.734 A 84.459 84.459 0 0 0 92.1 42.8 A 67.753 67.753 0 0 1 97.162 44.698 Q 103.089 47.217 105.9 50.1 Q 109.8 54.1 109.8 60.1 Q 109.8 66.848 104.549 70.855 A 16.618 16.618 0 0 1 104.15 71.15 Q 99.41 74.547 91.962 75.095 A 40.423 40.423 0 0 1 89 75.2 Q 83.1 75.2 78.35 73.7 A 30.883 30.883 0 0 1 74.51 72.215 Q 72.529 71.284 70.948 70.136 A 18.229 18.229 0 0 1 70.5 69.8 Z M 235 74 L 225.5 74 L 225.5 12.4 L 204 12.4 L 204 4 L 256.5 4 L 256.5 12.4 L 235 12.4 L 235 74 Z M 299.1 51.7 L 262.7 51.7 A 24.088 24.088 0 0 0 263.839 56.725 Q 265.175 60.538 267.8 63.1 Q 272 67.2 278.9 67.2 Q 283.4 67.2 287 66.25 Q 290.6 65.3 293.9 63.8 L 296 71.5 A 40.77 40.77 0 0 1 291.665 73.126 A 51.863 51.863 0 0 1 287.9 74.15 A 38.914 38.914 0 0 1 282.808 74.969 A 52.025 52.025 0 0 1 277.8 75.2 A 28.318 28.318 0 0 1 270.054 74.195 A 21.108 21.108 0 0 1 260.05 68.05 A 23.521 23.521 0 0 1 254.845 58.51 Q 253.5 53.845 253.5 48 A 35.359 35.359 0 0 1 254.333 40.178 A 28.84 28.84 0 0 1 256.45 34.05 A 24.642 24.642 0 0 1 261.466 26.968 A 22.887 22.887 0 0 1 264.7 24.35 A 21.048 21.048 0 0 1 274.959 20.878 A 26.205 26.205 0 0 1 277 20.8 Q 284.5 20.8 289.45 24.05 Q 294.4 27.3 296.9 32.8 A 28.185 28.185 0 0 1 299.326 42.664 A 33.434 33.434 0 0 1 299.4 44.9 A 75.204 75.204 0 0 1 299.109 51.597 A 69.426 69.426 0 0 1 299.1 51.7 Z M 562.6 26.2 L 562.6 22 L 570.8 22 L 570.8 61.4 A 12.15 12.15 0 0 0 570.902 63.036 Q 571.234 65.47 572.65 66.35 Q 574.5 67.5 576.7 67.5 L 574.8 74.5 A 17.722 17.722 0 0 1 570.535 74.028 Q 564.898 72.628 563.303 67.08 A 13.59 13.59 0 0 1 563.2 66.7 A 21.307 21.307 0 0 1 560.09 70.126 A 28.498 28.498 0 0 1 556.95 72.55 Q 553 75.2 546.9 75.2 Q 540.4 75.2 535.1 71.9 A 22.947 22.947 0 0 1 527.687 64.373 A 27.923 27.923 0 0 1 526.65 62.55 A 27.228 27.228 0 0 1 524.02 54.608 A 36.644 36.644 0 0 1 523.5 48.3 A 33.142 33.142 0 0 1 524.497 40.031 A 27.968 27.968 0 0 1 526.65 34.3 Q 529.8 28.1 535.35 24.45 A 22.297 22.297 0 0 1 546.545 20.844 A 27.388 27.388 0 0 1 548.1 20.8 A 22.584 22.584 0 0 1 552.894 21.29 A 18.703 18.703 0 0 1 556.25 22.35 A 26.002 26.002 0 0 1 560.537 24.644 A 22.103 22.103 0 0 1 562.6 26.2 Z M 588.2 57.7 L 588.2 0 L 597.2 0 L 597.2 56.8 A 20.644 20.644 0 0 0 597.388 59.688 Q 597.85 62.952 599.45 64.8 A 7.363 7.363 0 0 0 604.034 67.276 A 10.724 10.724 0 0 0 605.7 67.4 Q 607.6 67.4 609.45 66.95 A 22.192 22.192 0 0 0 610.913 66.544 Q 611.848 66.247 612.6 65.9 L 614.8 73.2 Q 613.401 73.822 611.488 74.323 A 34.978 34.978 0 0 1 610.35 74.6 A 23.816 23.816 0 0 1 607.195 75.085 A 30.514 30.514 0 0 1 604.5 75.2 A 20.862 20.862 0 0 1 599.61 74.646 A 17.544 17.544 0 0 1 596.2 73.45 A 12.683 12.683 0 0 1 590.875 68.685 A 15.856 15.856 0 0 1 590.35 67.8 Q 588.616 64.654 588.28 60.012 A 32.105 32.105 0 0 1 588.2 57.7 Z M 320.4 74 L 311.4 74 L 311.4 22 L 320.1 22 L 320.1 33.3 Q 321.4 30 323.6 27.15 Q 325.8 24.3 329.1 22.55 A 14.817 14.817 0 0 1 333.78 21.026 A 19.459 19.459 0 0 1 336.8 20.8 Q 338.3 20.8 339.8 20.95 A 18.972 18.972 0 0 1 340.855 21.084 Q 341.355 21.162 341.782 21.262 A 8.817 8.817 0 0 1 342.3 21.4 L 339.6 30.7 A 9.763 9.763 0 0 0 337.455 30.088 Q 336.359 29.9 335.1 29.9 A 12.958 12.958 0 0 0 328.47 31.746 A 15.609 15.609 0 0 0 328.05 32 Q 324.722 34.086 322.578 38.442 A 22.927 22.927 0 0 0 322.55 38.5 Q 320.787 42.107 320.47 47.328 A 39.09 39.09 0 0 0 320.4 49.7 L 320.4 74 Z M 59 74 L 50 74 L 50 22 L 59 22 L 59 74 Z M 451.8 74 L 442.8 74 L 442.8 22 L 451.8 22 L 451.8 74 Z M 561.8 60.7 L 561.8 32.8 Q 559.1 30.9 555.85 29.75 Q 552.6 28.6 549 28.6 A 15.924 15.924 0 0 0 544.029 29.354 A 14.024 14.024 0 0 0 540.55 31.05 A 16.301 16.301 0 0 0 535.531 36.474 A 19.962 19.962 0 0 0 534.8 37.85 A 20.663 20.663 0 0 0 533.047 43.527 A 27.678 27.678 0 0 0 532.7 48 Q 532.7 53.6 534.8 57.95 A 17.602 17.602 0 0 0 537.906 62.496 A 15.697 15.697 0 0 0 540.6 64.75 Q 544.3 67.2 548.9 67.2 Q 552.7 67.2 556.1 65.35 Q 559.5 63.5 561.8 60.7 Z M 262.6 44.4 L 291.1 44.4 A 24.355 24.355 0 0 0 290.696 39.815 Q 290.2 37.231 289.096 35.207 A 12.422 12.422 0 0 0 287.3 32.7 A 12.488 12.488 0 0 0 280.339 28.924 A 18.395 18.395 0 0 0 276.8 28.6 A 13.58 13.58 0 0 0 271.688 29.535 A 12.524 12.524 0 0 0 267.2 32.65 Q 263.4 36.7 262.6 44.4 Z M 50.137 11.288 A 5.973 5.973 0 0 0 54.5 13.1 A 8.175 8.175 0 0 0 55.996 12.969 A 5.647 5.647 0 0 0 59.1 11.35 Q 60.8 9.6 60.8 6.8 A 7.26 7.26 0 0 0 60.8 6.719 A 6.06 6.06 0 0 0 58.95 2.35 A 7.395 7.395 0 0 0 58.892 2.293 A 6.059 6.059 0 0 0 54.5 0.5 A 8.264 8.264 0 0 0 52.844 0.658 A 5.661 5.661 0 0 0 49.9 2.2 A 5.588 5.588 0 0 0 48.429 4.832 A 7.987 7.987 0 0 0 48.2 6.8 A 5.992 5.992 0 0 0 48.692 9.219 A 6.643 6.643 0 0 0 50.05 11.2 A 7.466 7.466 0 0 0 50.137 11.288 Z M 442.937 11.288 A 5.973 5.973 0 0 0 447.3 13.1 A 8.175 8.175 0 0 0 448.796 12.969 A 5.647 5.647 0 0 0 451.9 11.35 Q 453.6 9.6 453.6 6.8 A 7.26 7.26 0 0 0 453.6 6.719 A 6.06 6.06 0 0 0 451.75 2.35 A 7.395 7.395 0 0 0 451.692 2.293 A 6.059 6.059 0 0 0 447.3 0.5 A 8.264 8.264 0 0 0 445.644 0.658 A 5.661 5.661 0 0 0 442.7 2.2 A 5.588 5.588 0 0 0 441.229 4.832 A 7.987 7.987 0 0 0 441 6.8 A 5.992 5.992 0 0 0 441.492 9.219 A 6.643 6.643 0 0 0 442.85 11.2 A 7.466 7.466 0 0 0 442.937 11.288 Z" vector-effect="non-scaling-stroke"/></g></svg>